<?xml version="1.0" standalone="no"?><!DOCTYPE svg PUBLIC "-//W3C//DTD SVG 1.1//EN" "http://www.w3.org/Graphics/SVG/1.1/DTD/svg11.dtd"><svg t="1586520639139" class="icon" viewBox="0 0 1024 1024" version="1.1" xmlns="http://www.w3.org/2000/svg" p-id="3639" xmlns:xlink="http://www.w3.org/1999/xlink" width="40" height="40"><defs><style type="text/css"></style></defs><path d="M895 532.75h-56a8 8 0 0 0-8 8V828l-638-0.67V540a8 8 0 0 0-8-8h-56a8 8 0 0 0-8 8v327.25a32 32 0 0 0 32 32l718 0.75a32 32 0 0 0 32-32V540.75a8 8 0 0 0-8-8z" p-id="3640"></path><path d="M368.2 325.9H476v397a8 8 0 0 0 8 8h56a8 8 0 0 0 8-8v-397h107.8a8 8 0 0 0 6.36-12.9L518.35 125.14a8 8 0 0 0-12.7 0L361.84 313a8 8 0 0 0 6.36 12.9z" p-id="3641"></path></svg>